<svg width="1370" height="210" viewBox="0 0 1370 210" fill="none" xmlns="http://www.w3.org/2000/svg">
<path d="M106.741 152.97C111.532 158.126 114.193 164.894 114.193 171.921V200.495L75.8254 162.347L93.0802 138.496L106.741 152.97Z" fill="#004DFF" style="fill:#004DFF;fill:color(display-p3 0.0000 0.3000 1.0000);fill-opacity:1;"/>
<path d="M65.6566 170.653L35.2181 169.876L58.0184 200.495H114.193L65.6566 170.653Z" fill="#004DFF" style="fill:#004DFF;fill:color(display-p3 0.0000 0.3000 1.0000);fill-opacity:1;"/>
<path d="M93.0802 121.379L57.166 155.385L56.7872 104.626L93.0802 87.2096V121.379Z" fill="#004DFF" style="fill:#004DFF;fill:color(display-p3 0.0000 0.3000 1.0000);fill-opacity:1;"/>
<path d="M16.7237 138.496L57.166 155.385L33.8683 115.41L0 103.921L16.7237 138.496Z" fill="#004DFF" style="fill:#004DFF;fill:color(display-p3 0.0000 0.3000 1.0000);fill-opacity:1;"/>
<path d="M42.6756 58.824L39.9077 104.626L12.3427 67.0222L27.3603 32.1913L42.6756 58.824Z" fill="#004DFF" style="fill:#004DFF;fill:color(display-p3 0.0000 0.3000 1.0000);fill-opacity:1;"/>
<path d="M93.0802 75.7234L39.9077 104.626L57.0036 67.0222H93.0802V75.7234Z" fill="#004DFF" style="fill:#004DFF;fill:color(display-p3 0.0000 0.3000 1.0000);fill-opacity:1;"/>
<path d="M105.229 42.5965V9.12305L58.0184 28.5135L56.7872 56.2732L105.229 42.5965Z" fill="#004DFF" style="fill:#004DFF;fill:color(display-p3 0.0000 0.3000 1.0000);fill-opacity:1;"/>
<path d="M133.259 153.35C128.468 158.507 125.807 165.275 125.807 172.301V200.876L164.175 162.728L146.92 138.877L133.259 153.35Z" fill="#004DFF" style="fill:#004DFF;fill:color(display-p3 0.0000 0.3000 1.0000);fill-opacity:1;"/>
<path d="M174.343 171.034L204.782 170.257L181.982 200.876H125.807L174.343 171.034Z" fill="#004DFF" style="fill:#004DFF;fill:color(display-p3 0.0000 0.3000 1.0000);fill-opacity:1;"/>
<path d="M146.92 121.76L182.834 155.766L183.213 105.006L146.92 87.5905V121.76Z" fill="#004DFF" style="fill:#004DFF;fill:color(display-p3 0.0000 0.3000 1.0000);fill-opacity:1;"/>
<path d="M223.276 138.877L182.834 155.766L206.132 115.791L240 104.302L223.276 138.877Z" fill="#004DFF" style="fill:#004DFF;fill:color(display-p3 0.0000 0.3000 1.0000);fill-opacity:1;"/>
<path d="M197.324 59.2049L200.092 105.006L227.657 67.403L212.64 32.5722L197.324 59.2049Z" fill="#004DFF" style="fill:#004DFF;fill:color(display-p3 0.0000 0.3000 1.0000);fill-opacity:1;"/>
<path d="M146.92 76.1043L200.092 105.006L182.996 67.403H146.92V76.1043Z" fill="#004DFF" style="fill:#004DFF;fill:color(display-p3 0.0000 0.3000 1.0000);fill-opacity:1;"/>
<path d="M134.771 42.9774V9.50391L181.982 28.8944L183.213 56.654L134.771 42.9774Z" fill="#004DFF" style="fill:#004DFF;fill:color(display-p3 0.0000 0.3000 1.0000);fill-opacity:1;"/>
<path d="M282.993 170V39.9972H331.996C365.822 39.9972 379.901 51.6993 379.901 73.275C379.901 89.3654 372.77 98.8733 358.874 103.444C374.05 107.65 382.461 116.792 382.461 133.614C382.461 157.201 367.102 170 333.276 170H282.993ZM332.727 96.1306C351.926 96.3135 362.348 89.9139 362.348 74.9206C362.348 61.3901 353.571 54.8076 332.544 54.8076H300.364V96.1306H332.727ZM300.364 110.758V154.641H331.264C355.034 154.641 364.359 146.962 364.359 132.334C364.359 117.158 353.389 110.758 331.63 110.758H300.364ZM481.332 144.036C474.018 160.126 457.927 172.743 434.706 172.743C412.216 172.743 400.514 161.772 400.514 144.95C400.514 133.98 405.634 125.203 414.045 120.083C416.97 118.072 419.896 116.792 423.004 115.512C429.404 113.318 438.18 111.49 452.076 109.478C470.544 106.736 480.6 105.09 480.6 95.2164C480.6 83.88 473.104 76.749 453.539 76.749C432.878 76.749 422.821 86.8055 421.907 101.433H403.805C404.354 93.7536 406.731 87.1712 410.571 81.3202C418.616 69.6181 432.878 62.67 452.808 62.67C485.354 62.67 497.788 76.3834 497.788 97.9591V170H483.343L481.332 144.036ZM440.191 158.664C452.259 158.664 462.316 153.91 469.447 146.23C476.76 138.551 480.783 129.408 480.783 120.632V112.952C476.212 116.792 467.435 118.803 455.916 120.815C440.009 123.192 433.243 125.02 427.392 128.86C422.455 131.968 419.896 136.539 419.896 142.756C419.896 152.63 426.478 158.664 440.191 158.664ZM579.421 170H567.902C558.576 170 551.263 168.72 546.143 166.343C535.904 161.406 532.247 150.436 532.247 129.591V81.3202H511.768V66.144H521.825C524.933 66.144 527.31 65.9612 528.956 65.2298C532.064 63.9499 532.795 60.4758 533.344 52.6135C533.344 51.6993 533.344 50.0537 533.527 48.0424C533.527 43.8369 533.709 39.4487 533.709 37.9859H548.703V65.5955H579.421V81.3202H548.703V127.031C548.703 134.711 549.251 140.196 550.531 143.853C553.274 151.533 559.491 153.361 571.924 153.361H579.421V170ZM660.487 170H648.968C639.642 170 632.329 168.72 627.209 166.343C616.97 161.406 613.313 150.436 613.313 129.591V81.3202H592.834V66.144H602.891C605.999 66.144 608.376 65.9612 610.022 65.2298C613.13 63.9499 613.861 60.4758 614.41 52.6135C614.41 51.6993 614.41 50.0537 614.593 48.0424C614.593 43.8369 614.776 39.4487 614.776 37.9859H629.769V65.5955H660.487V81.3202H629.769V127.031C629.769 134.711 630.317 140.196 631.597 143.853C634.34 151.533 640.557 153.361 652.99 153.361H660.487V170ZM680.445 170V30.1236H698.181V170H680.445ZM821.976 138.916C815.942 160.492 798.389 172.743 772.425 172.743C737.684 172.743 720.314 152.264 720.314 119.718V117.523C720.314 106.553 722.508 97.0448 726.714 88.634C735.307 72.1779 751.398 62.67 772.974 62.67C784.493 62.67 794.001 65.047 801.315 69.9838C816.308 79.8574 823.439 96.4963 823.439 115.329V123.74H737.867C739.147 145.316 751.581 157.749 773.156 157.749C788.333 157.749 798.938 151.167 802.777 138.916H821.976ZM773.156 77.1147C753.043 77.1147 740.244 89.3654 738.05 109.661H805.703C804.24 89.731 793.269 77.1147 773.156 77.1147ZM953.662 123.192C950.553 154.092 933 172.743 898.26 172.743C862.056 172.743 841.943 151.716 841.943 110.575V101.067C841.943 60.1102 863.153 37.8031 898.991 37.8031C930.44 37.8031 949.273 53.3449 952.747 84.7942H934.097C931.72 64.8641 920.567 53.8934 898.991 53.8934C874.307 53.8934 860.228 70.5323 860.228 101.982V109.844C860.228 139.648 873.758 155.738 898.991 155.738C921.115 155.738 932.452 143.305 934.646 123.192H953.662ZM992.788 170H975.783V30.1236H992.788V86.6227C999.187 72.1779 1011.99 62.67 1030.64 62.67C1057.51 62.67 1070.68 79.4917 1070.68 106.187V170H1052.94V110.575C1052.94 91.3767 1044.9 78.2118 1024.24 78.2118C1004.12 78.2118 992.788 93.3879 992.788 115.147V170ZM1171.64 144.036C1164.33 160.126 1148.24 172.743 1125.02 172.743C1102.53 172.743 1090.83 161.772 1090.83 144.95C1090.83 133.98 1095.94 125.203 1104.36 120.083C1107.28 118.072 1110.21 116.792 1113.32 115.512C1119.71 113.318 1128.49 111.49 1142.39 109.478C1160.85 106.736 1170.91 105.09 1170.91 95.2164C1170.91 83.88 1163.41 76.749 1143.85 76.749C1123.19 76.749 1113.13 86.8055 1112.22 101.433H1094.12C1094.67 93.7536 1097.04 87.1712 1100.88 81.3202C1108.93 69.6181 1123.19 62.67 1143.12 62.67C1175.67 62.67 1188.1 76.3834 1188.1 97.9591V170H1173.65L1171.64 144.036ZM1130.5 158.664C1142.57 158.664 1152.63 153.91 1159.76 146.23C1167.07 138.551 1171.09 129.408 1171.09 120.632V112.952C1166.52 116.792 1157.75 118.803 1146.23 120.815C1130.32 123.192 1123.55 125.02 1117.7 128.86C1112.77 131.968 1110.21 136.539 1110.21 142.756C1110.21 152.63 1116.79 158.664 1130.5 158.664ZM1224.56 52.2478C1215.41 52.2478 1211.94 48.9566 1211.94 39.6315C1211.94 30.3064 1216.15 27.0152 1224.56 27.0152C1232.97 27.0152 1236.99 30.3064 1236.99 39.6315C1236.99 48.7738 1232.97 52.2478 1224.56 52.2478ZM1215.23 170V65.5955H1233.33V170H1215.23ZM1278.85 170H1260.93V65.5955H1275.93L1277.76 89.3654C1283.42 73.275 1296.04 62.67 1315.97 62.67C1342.85 62.67 1356.74 80.0403 1356.74 106.553V170H1338.83V110.575C1338.83 91.011 1330.96 78.2118 1310.67 78.2118C1290.01 78.2118 1278.85 93.0223 1278.85 115.329V170Z" fill="black" style="fill:black;fill-opacity:1;"/>
</svg>
