<svg width="1102" height="216" viewBox="0 0 1102 216" fill="none" xmlns="http://www.w3.org/2000/svg">
<path d="M14.9933 176V45.9972H63.9957C97.8221 45.9972 111.901 57.6993 111.901 79.275C111.901 95.3654 104.77 104.873 90.874 109.444C106.05 113.65 114.461 122.792 114.461 139.614C114.461 163.201 99.102 176 65.2757 176H14.9933ZM64.7271 102.131C83.9259 102.313 94.348 95.9139 94.348 80.9206C94.348 67.3901 85.5715 60.8076 64.5443 60.8076H32.3636V102.131H64.7271ZM32.3636 116.758V160.641H63.2644C87.0342 160.641 96.3593 152.962 96.3593 138.334C96.3593 123.158 85.3886 116.758 63.6301 116.758H32.3636ZM213.332 150.036C206.018 166.126 189.927 178.743 166.706 178.743C144.216 178.743 132.514 167.772 132.514 150.95C132.514 139.98 137.634 131.203 146.045 126.083C148.97 124.072 151.896 122.792 155.004 121.512C161.404 119.318 170.18 117.49 184.076 115.478C202.544 112.736 212.6 111.09 212.6 101.216C212.6 89.88 205.104 82.749 185.539 82.749C164.878 82.749 154.821 92.8055 153.907 107.433H135.805C136.354 99.7536 138.731 93.1712 142.571 87.3202C150.616 75.6181 164.878 68.67 184.808 68.67C217.354 68.67 229.788 82.3834 229.788 103.959V176H215.343L213.332 150.036ZM172.191 164.664C184.259 164.664 194.316 159.91 201.447 152.23C208.76 144.551 212.783 135.408 212.783 126.632V118.952C208.212 122.792 199.435 124.803 187.916 126.815C172.009 129.192 165.243 131.02 159.392 134.86C154.455 137.968 151.896 142.539 151.896 148.756C151.896 158.63 158.478 164.664 172.191 164.664ZM311.421 176H299.902C290.576 176 283.263 174.72 278.143 172.343C267.904 167.406 264.247 156.436 264.247 135.591V87.3202H243.768V72.144H253.825C256.933 72.144 259.31 71.9612 260.956 71.2298C264.064 69.9499 264.795 66.4758 265.344 58.6135C265.344 57.6993 265.344 56.0537 265.527 54.0424C265.527 49.8369 265.709 45.4487 265.709 43.9859H280.703V71.5955H311.421V87.3202H280.703V133.031C280.703 140.711 281.251 146.196 282.531 149.853C285.274 157.533 291.491 159.361 303.924 159.361H311.421V176ZM392.487 176H380.968C371.642 176 364.329 174.72 359.209 172.343C348.97 167.406 345.313 156.436 345.313 135.591V87.3202H324.834V72.144H334.891C337.999 72.144 340.376 71.9612 342.022 71.2298C345.13 69.9499 345.861 66.4758 346.41 58.6135C346.41 57.6993 346.41 56.0537 346.593 54.0424C346.593 49.8369 346.776 45.4487 346.776 43.9859H361.769V71.5955H392.487V87.3202H361.769V133.031C361.769 140.711 362.317 146.196 363.597 149.853C366.34 157.533 372.557 159.361 384.99 159.361H392.487V176ZM412.445 176V36.1236H430.181V176H412.445ZM553.976 144.916C547.942 166.492 530.389 178.743 504.425 178.743C469.684 178.743 452.314 158.264 452.314 125.718V123.523C452.314 112.553 454.508 103.045 458.714 94.634C467.307 78.1779 483.398 68.67 504.974 68.67C516.493 68.67 526.001 71.047 533.315 75.9838C548.308 85.8574 555.439 102.496 555.439 121.329V129.74H469.867C471.147 151.316 483.581 163.749 505.156 163.749C520.333 163.749 530.938 157.167 534.777 144.916H553.976ZM505.156 83.1147C485.043 83.1147 472.244 95.3654 470.05 115.661H537.703C536.24 95.731 525.269 83.1147 505.156 83.1147ZM685.662 129.192C682.553 160.092 665 178.743 630.26 178.743C594.056 178.743 573.943 157.716 573.943 116.575V107.067C573.943 66.1102 595.153 43.8031 630.991 43.8031C662.44 43.8031 681.273 59.3449 684.747 90.7942H666.097C663.72 70.8641 652.567 59.8934 630.991 59.8934C606.307 59.8934 592.228 76.5323 592.228 107.982V115.844C592.228 145.648 605.758 161.738 630.991 161.738C653.115 161.738 664.452 149.305 666.646 129.192H685.662ZM724.788 176H707.783V36.1236H724.788V92.6227C731.187 78.1779 743.986 68.67 762.636 68.67C789.515 68.67 802.679 85.4917 802.679 112.187V176H784.944V116.575C784.944 97.3767 776.898 84.2118 756.237 84.2118C736.124 84.2118 724.788 99.3879 724.788 121.147V176ZM903.643 150.036C896.329 166.126 880.239 178.743 857.017 178.743C834.527 178.743 822.825 167.772 822.825 150.95C822.825 139.98 827.945 131.203 836.356 126.083C839.281 124.072 842.207 122.792 845.315 121.512C851.715 119.318 860.491 117.49 874.388 115.478C892.855 112.736 902.911 111.09 902.911 101.216C902.911 89.88 895.415 82.749 875.85 82.749C855.189 82.749 845.132 92.8055 844.218 107.433H826.116C826.665 99.7536 829.042 93.1712 832.882 87.3202C840.927 75.6181 855.189 68.67 875.119 68.67C907.665 68.67 920.099 82.3834 920.099 103.959V176H905.654L903.643 150.036ZM862.503 164.664C874.57 164.664 884.627 159.91 891.758 152.23C899.072 144.551 903.094 135.408 903.094 126.632V118.952C898.523 122.792 889.747 124.803 878.227 126.815C862.32 129.192 855.555 131.02 849.703 134.86C844.767 137.968 842.207 142.539 842.207 148.756C842.207 158.63 848.789 164.664 862.503 164.664ZM956.556 58.2478C947.414 58.2478 943.94 54.9566 943.94 45.6315C943.94 36.3064 948.146 33.0152 956.556 33.0152C964.967 33.0152 968.99 36.3064 968.99 45.6315C968.99 54.7738 964.967 58.2478 956.556 58.2478ZM947.231 176V71.5955H965.333V176H947.231ZM1010.85 176H992.934V71.5955H1007.93L1009.76 95.3654C1015.42 79.275 1028.04 68.67 1047.97 68.67C1074.85 68.67 1088.74 86.0403 1088.74 112.553V176H1070.83V116.575C1070.83 97.011 1062.96 84.2118 1042.67 84.2118C1022.01 84.2118 1010.85 99.0223 1010.85 121.329V176Z" fill="black" style="fill:black;fill-opacity:1;"/>
</svg>
